<svg xmlns="http://www.w3.org/2000/svg" xmlns:xlink="http://www.w3.org/1999/xlink" width="500" zoomAndPan="magnify" viewBox="0 0 375 374.999991" height="500" preserveAspectRatio="xMidYMid meet" version="1.0"><defs><clipPath id="9cf907031e"><path d="M 35 170 L 204 170 L 204 337 L 35 337 Z M 35 170 " clip-rule="nonzero"/></clipPath><clipPath id="227ea15e87"><path d="M 0 198.828125 L 115.613281 83.214844 L 288.5 256.101562 L 172.886719 371.714844 Z M 0 198.828125 " clip-rule="nonzero"/></clipPath><clipPath id="6e5cb3b047"><path d="M 0 198.828125 L 115.613281 83.214844 L 288.5 256.101562 L 172.886719 371.714844 Z M 0 198.828125 " clip-rule="nonzero"/></clipPath><clipPath id="418da5fd74"><path d="M 121 90 L 290 90 L 290 257 L 121 257 Z M 121 90 " clip-rule="nonzero"/></clipPath><clipPath id="ba202354c0"><path d="M 86.453125 118.917969 L 202.066406 3.308594 L 374.953125 176.195312 L 259.339844 291.808594 Z M 86.453125 118.917969 " clip-rule="nonzero"/></clipPath><clipPath id="cf941fb740"><path d="M 86.453125 118.917969 L 202.066406 3.308594 L 374.953125 176.195312 L 259.339844 291.808594 Z M 86.453125 118.917969 " clip-rule="nonzero"/></clipPath></defs><g clip-path="url(#9cf907031e)"><g clip-path="url(#227ea15e87)"><g clip-path="url(#6e5cb3b047)"><path fill="#18cb96" d="M 203.328125 170.867188 L 57.109375 170.125 C 28.867188 169.980469 26.269531 225.089844 59.707031 224.679688 L 150.628906 223.566406 L 147.289062 315.230469 C 146.273438 343.144531 200.664062 343.949219 201.101562 315.601562 Z M 203.328125 170.867188 " fill-opacity="1" fill-rule="nonzero"/></g></g></g><g clip-path="url(#418da5fd74)"><g clip-path="url(#ba202354c0)"><g clip-path="url(#cf941fb740)"><path fill="#18cb96" d="M 289.78125 90.960938 L 143.5625 90.21875 C 115.320312 90.074219 112.722656 145.183594 146.160156 144.773438 L 237.085938 143.660156 L 233.746094 235.324219 C 232.726562 263.238281 287.121094 264.042969 287.554688 235.695312 Z M 289.78125 90.960938 " fill-opacity="1" fill-rule="nonzero"/></g></g></g></svg>