<svg xmlns="http://www.w3.org/2000/svg" xmlns:xlink="http://www.w3.org/1999/xlink" width="500" zoomAndPan="magnify" viewBox="0 0 375 374.999991" height="500" preserveAspectRatio="xMidYMid meet" version="1.0"><defs><g/><clipPath id="b28ee14ac8"><path d="M 289 169 L 320 169 L 320 199 L 289 199 Z M 289 169 " clip-rule="nonzero"/></clipPath><clipPath id="9634509a60"><path d="M 283.242188 174.21875 L 303.925781 153.535156 L 334.683594 184.296875 L 314 204.980469 Z M 283.242188 174.21875 " clip-rule="nonzero"/></clipPath><clipPath id="f67d8268ab"><path d="M 283.242188 174.21875 L 303.925781 153.535156 L 334.683594 184.296875 L 314 204.980469 Z M 283.242188 174.21875 " clip-rule="nonzero"/></clipPath><clipPath id="0e0bc3031d"><path d="M 304 154 L 335 154 L 335 185 L 304 185 Z M 304 154 " clip-rule="nonzero"/></clipPath><clipPath id="d0d53f1431"><path d="M 298.554688 160.066406 L 319.238281 139.382812 L 350 170.140625 L 329.316406 190.824219 Z M 298.554688 160.066406 " clip-rule="nonzero"/></clipPath><clipPath id="3d29193f83"><path d="M 298.554688 160.066406 L 319.238281 139.382812 L 350 170.140625 L 329.316406 190.824219 Z M 298.554688 160.066406 " clip-rule="nonzero"/></clipPath></defs><g clip-path="url(#b28ee14ac8)"><g clip-path="url(#9634509a60)"><g clip-path="url(#f67d8268ab)"><path fill="#18cb96" d="M 319.257812 169.269531 L 293.359375 169.136719 C 288.355469 169.113281 287.894531 178.871094 293.820312 178.800781 L 309.925781 178.601562 L 309.332031 194.839844 C 309.152344 199.785156 318.785156 199.925781 318.863281 194.90625 Z M 319.257812 169.269531 " fill-opacity="1" fill-rule="nonzero"/></g></g></g><g clip-path="url(#0e0bc3031d)"><g clip-path="url(#d0d53f1431)"><g clip-path="url(#3d29193f83)"><path fill="#18cb96" d="M 334.574219 155.113281 L 308.671875 154.984375 C 303.671875 154.957031 303.210938 164.71875 309.132812 164.644531 L 325.238281 164.449219 L 324.648438 180.683594 C 324.464844 185.628906 334.101562 185.769531 334.179688 180.75 Z M 334.574219 155.113281 " fill-opacity="1" fill-rule="nonzero"/></g></g></g><g fill="#ffffff" fill-opacity="1"><g transform="translate(84.512664, 212.299615)"><g><path d="M 35.578125 -7.3125 C 36.597656 -6.1875 37.070312 -5.054688 37 -3.921875 C 36.925781 -2.796875 36.503906 -1.859375 35.734375 -1.109375 C 34.960938 -0.367188 34.035156 0 32.953125 0 C 31.773438 0 30.617188 -0.5625 29.484375 -1.6875 L 18.484375 -13.625 L 7.546875 -1.84375 C 6.367188 -0.613281 5.085938 0 3.703125 0 C 2.671875 0 1.769531 -0.34375 1 -1.03125 C 0.226562 -1.726562 -0.179688 -2.601562 -0.234375 -3.65625 C -0.285156 -4.707031 0.203125 -5.800781 1.234375 -6.9375 L 13.09375 -19.71875 L 1.546875 -32.1875 C 0.515625 -33.3125 0.0234375 -34.410156 0.078125 -35.484375 C 0.128906 -36.566406 0.550781 -37.453125 1.34375 -38.140625 C 2.144531 -38.835938 3.082031 -39.1875 4.15625 -39.1875 C 4.820312 -39.1875 5.5 -39.03125 6.1875 -38.71875 C 6.882812 -38.414062 7.566406 -37.90625 8.234375 -37.1875 L 18.640625 -26.03125 L 29.1875 -37.34375 C 29.800781 -38.007812 30.441406 -38.484375 31.109375 -38.765625 C 31.773438 -39.046875 32.414062 -39.1875 33.03125 -39.1875 C 34.113281 -39.1875 35.035156 -38.851562 35.796875 -38.1875 C 36.566406 -37.519531 36.976562 -36.660156 37.03125 -35.609375 C 37.082031 -34.554688 36.570312 -33.441406 35.5 -32.265625 L 23.953125 -19.859375 Z M 35.578125 -7.3125 "/></g></g></g><g fill="#ffffff" fill-opacity="1"><g transform="translate(121.625539, 212.299615)"><g><path d="M 0.53125 -11.625 C 0.175781 -13.113281 0.535156 -14.296875 1.609375 -15.171875 C 2.691406 -16.046875 3.898438 -16.484375 5.234375 -16.484375 C 6.265625 -16.484375 7.175781 -16.238281 7.96875 -15.75 C 8.757812 -15.257812 9.257812 -14.5 9.46875 -13.46875 C 10.03125 -11.832031 11.09375 -10.5625 12.65625 -9.65625 C 14.226562 -8.757812 15.988281 -8.144531 17.9375 -7.8125 C 19.882812 -7.476562 21.707031 -7.3125 23.40625 -7.3125 C 24.738281 -7.3125 26.203125 -7.414062 27.796875 -7.625 C 29.390625 -7.832031 30.90625 -8.203125 32.34375 -8.734375 C 33.78125 -9.273438 34.957031 -10.03125 35.875 -11 C 36.800781 -11.976562 37.265625 -13.238281 37.265625 -14.78125 C 37.265625 -16.425781 36.582031 -17.632812 35.21875 -18.40625 C 33.863281 -19.175781 32.132812 -19.726562 30.03125 -20.0625 C 27.925781 -20.394531 25.71875 -20.640625 23.40625 -20.796875 C 20.789062 -20.992188 18.160156 -21.296875 15.515625 -21.703125 C 12.867188 -22.117188 10.453125 -22.789062 8.265625 -23.71875 C 6.085938 -24.644531 4.332031 -25.992188 3 -27.765625 C 1.664062 -29.535156 1 -31.878906 1 -34.796875 C 1 -37.421875 1.664062 -39.679688 3 -41.578125 C 4.332031 -43.472656 6.078125 -45.023438 8.234375 -46.234375 C 10.390625 -47.441406 12.722656 -48.335938 15.234375 -48.921875 C 17.753906 -49.515625 20.222656 -49.8125 22.640625 -49.8125 C 25.304688 -49.8125 28.101562 -49.503906 31.03125 -48.890625 C 33.957031 -48.273438 36.640625 -47.1875 39.078125 -45.625 C 41.515625 -44.0625 43.320312 -41.863281 44.5 -39.03125 C 44.914062 -37.601562 44.625 -36.410156 43.625 -35.453125 C 42.625 -34.503906 41.453125 -34.03125 40.109375 -34.03125 C 39.296875 -34.03125 38.515625 -34.222656 37.765625 -34.609375 C 37.023438 -34.992188 36.5 -35.519531 36.1875 -36.1875 C 35.570312 -37.78125 34.492188 -38.960938 32.953125 -39.734375 C 31.410156 -40.503906 29.71875 -41.003906 27.875 -41.234375 C 26.03125 -41.460938 24.3125 -41.578125 22.71875 -41.578125 C 21.6875 -41.578125 20.460938 -41.472656 19.046875 -41.265625 C 17.640625 -41.066406 16.269531 -40.707031 14.9375 -40.1875 C 13.601562 -39.675781 12.484375 -38.972656 11.578125 -38.078125 C 10.679688 -37.179688 10.234375 -36.066406 10.234375 -34.734375 C 10.234375 -33.085938 10.875 -31.851562 12.15625 -31.03125 C 13.445312 -30.207031 15.15625 -29.640625 17.28125 -29.328125 C 19.414062 -29.023438 21.738281 -28.769531 24.25 -28.5625 C 26.925781 -28.3125 29.582031 -28.019531 32.21875 -27.6875 C 34.863281 -27.351562 37.265625 -26.757812 39.421875 -25.90625 C 41.578125 -25.0625 43.296875 -23.78125 44.578125 -22.0625 C 45.867188 -20.34375 46.515625 -17.941406 46.515625 -14.859375 C 46.515625 -11.773438 45.78125 -9.234375 44.3125 -7.234375 C 42.851562 -5.234375 40.941406 -3.640625 38.578125 -2.453125 C 36.210938 -1.273438 33.695312 -0.445312 31.03125 0.03125 C 28.363281 0.519531 25.820312 0.765625 23.40625 0.765625 C 21.40625 0.765625 19.222656 0.570312 16.859375 0.1875 C 14.503906 -0.195312 12.207031 -0.863281 9.96875 -1.8125 C 7.738281 -2.757812 5.773438 -4.03125 4.078125 -5.625 C 2.390625 -7.21875 1.207031 -9.21875 0.53125 -11.625 Z M 0.53125 -11.625 "/></g></g></g><g fill="#ffffff" fill-opacity="1"><g transform="translate(168.440298, 212.299615)"><g><path d="M 3.46875 -44.890625 C 3.46875 -46.328125 3.925781 -47.378906 4.84375 -48.046875 C 5.769531 -48.710938 6.800781 -49.046875 7.9375 -49.046875 C 9.0625 -49.046875 10.097656 -48.710938 11.046875 -48.046875 C 11.992188 -47.378906 12.46875 -46.328125 12.46875 -44.890625 L 12.46875 -3.921875 C 12.46875 -2.640625 11.992188 -1.664062 11.046875 -1 C 10.097656 -0.332031 9.0625 0 7.9375 0 C 6.800781 0 5.769531 -0.316406 4.84375 -0.953125 C 3.925781 -1.597656 3.46875 -2.585938 3.46875 -3.921875 Z M 3.46875 -44.890625 "/></g></g></g><g fill="#ffffff" fill-opacity="1"><g transform="translate(182.45345, 212.299615)"><g><path d="M 40.109375 -7.703125 C 41.453125 -7.703125 42.492188 -7.273438 43.234375 -6.421875 C 43.984375 -5.578125 44.359375 -4.671875 44.359375 -3.703125 C 44.359375 -2.773438 44.007812 -1.925781 43.3125 -1.15625 C 42.613281 -0.382812 41.546875 0 40.109375 0 L 9.546875 0 C 8.003906 0 6.769531 -0.445312 5.84375 -1.34375 C 4.925781 -2.238281 4.46875 -3.332031 4.46875 -4.625 L 4.46875 -44.5 C 4.46875 -45.738281 4.925781 -46.804688 5.84375 -47.703125 C 6.769531 -48.597656 8.003906 -49.046875 9.546875 -49.046875 L 40.109375 -49.046875 C 41.503906 -49.046875 42.535156 -48.671875 43.203125 -47.921875 C 43.867188 -47.179688 44.203125 -46.328125 44.203125 -45.359375 C 44.203125 -44.429688 43.851562 -43.554688 43.15625 -42.734375 C 42.46875 -41.910156 41.453125 -41.5 40.109375 -41.5 L 13.25 -41.5 L 13.25 -28.03125 L 38.734375 -28.03125 C 40.066406 -28.03125 41.066406 -27.628906 41.734375 -26.828125 C 42.398438 -26.035156 42.734375 -25.148438 42.734375 -24.171875 C 42.734375 -23.253906 42.398438 -22.410156 41.734375 -21.640625 C 41.066406 -20.867188 40.066406 -20.484375 38.734375 -20.484375 L 13.25 -20.484375 L 13.25 -7.703125 Z M 40.109375 -7.703125 "/></g></g></g><g fill="#ffffff" fill-opacity="1"><g transform="translate(228.729199, 212.299615)"><g><path d="M 9.09375 -49.046875 C 10.726562 -49.046875 12.035156 -48.273438 13.015625 -46.734375 L 29.109375 -21.5625 L 45.125 -46.8125 C 45.632812 -47.582031 46.257812 -48.144531 47 -48.5 C 47.75 -48.863281 48.484375 -49.046875 49.203125 -49.046875 C 50.328125 -49.046875 51.328125 -48.671875 52.203125 -47.921875 C 53.078125 -47.179688 53.515625 -46.117188 53.515625 -44.734375 L 53.515625 -4 C 53.515625 -2.664062 53.023438 -1.664062 52.046875 -1 C 51.078125 -0.332031 50.050781 0 48.96875 0 C 47.84375 0 46.828125 -0.332031 45.921875 -1 C 45.023438 -1.664062 44.578125 -2.664062 44.578125 -4 L 44.578125 -29.953125 L 33.109375 -12.015625 C 32.703125 -11.242188 32.125 -10.675781 31.375 -10.3125 C 30.632812 -9.957031 29.878906 -9.78125 29.109375 -9.78125 C 28.335938 -9.78125 27.550781 -10 26.75 -10.4375 C 25.957031 -10.875 25.359375 -11.476562 24.953125 -12.25 L 13.625 -29.875 L 13.625 -4 C 13.625 -2.664062 13.148438 -1.664062 12.203125 -1 C 11.253906 -0.332031 10.238281 0 9.15625 0 C 8.03125 0 7.003906 -0.332031 6.078125 -1 C 5.160156 -1.664062 4.703125 -2.664062 4.703125 -4 L 4.703125 -44.65625 C 4.703125 -45.988281 5.148438 -47.050781 6.046875 -47.84375 C 6.941406 -48.644531 7.957031 -49.046875 9.09375 -49.046875 Z M 9.09375 -49.046875 "/></g></g></g><g fill="#ffffff" fill-opacity="1"><g transform="translate(90.129031, 242.328987)"><g><path d="M 6.375 0.1875 C 4.90625 0.1875 3.703125 -0.132812 2.765625 -0.78125 C 1.835938 -1.425781 1.320312 -2.34375 1.21875 -3.53125 L 2.328125 -3.53125 C 2.410156 -2.675781 2.800781 -2 3.5 -1.5 C 4.195312 -1 5.15625 -0.75 6.375 -0.75 C 7.375 -0.75 8.164062 -1.003906 8.75 -1.515625 C 9.34375 -2.023438 9.640625 -2.648438 9.640625 -3.390625 C 9.640625 -3.910156 9.476562 -4.332031 9.15625 -4.65625 C 8.84375 -4.988281 8.453125 -5.242188 7.984375 -5.421875 C 7.523438 -5.597656 6.890625 -5.789062 6.078125 -6 C 5.109375 -6.257812 4.320312 -6.515625 3.71875 -6.765625 C 3.125 -7.015625 2.617188 -7.390625 2.203125 -7.890625 C 1.785156 -8.390625 1.578125 -9.0625 1.578125 -9.90625 C 1.578125 -10.519531 1.757812 -11.085938 2.125 -11.609375 C 2.5 -12.140625 3.015625 -12.554688 3.671875 -12.859375 C 4.335938 -13.171875 5.09375 -13.328125 5.9375 -13.328125 C 7.3125 -13.328125 8.421875 -12.984375 9.265625 -12.296875 C 10.109375 -11.609375 10.5625 -10.660156 10.625 -9.453125 L 9.546875 -9.453125 C 9.492188 -10.316406 9.148438 -11.023438 8.515625 -11.578125 C 7.890625 -12.128906 7.019531 -12.40625 5.90625 -12.40625 C 4.96875 -12.40625 4.191406 -12.160156 3.578125 -11.671875 C 2.972656 -11.191406 2.671875 -10.601562 2.671875 -9.90625 C 2.671875 -9.289062 2.84375 -8.789062 3.1875 -8.40625 C 3.53125 -8.03125 3.957031 -7.738281 4.46875 -7.53125 C 4.976562 -7.332031 5.648438 -7.125 6.484375 -6.90625 C 7.410156 -6.664062 8.148438 -6.425781 8.703125 -6.1875 C 9.265625 -5.957031 9.738281 -5.617188 10.125 -5.171875 C 10.507812 -4.722656 10.703125 -4.128906 10.703125 -3.390625 C 10.703125 -2.710938 10.515625 -2.097656 10.140625 -1.546875 C 9.773438 -1.003906 9.257812 -0.578125 8.59375 -0.265625 C 7.9375 0.0351562 7.195312 0.1875 6.375 0.1875 Z M 6.375 0.1875 "/></g></g></g><g fill="#ffffff" fill-opacity="1"><g transform="translate(101.247154, 242.328987)"><g><path d="M 13.828125 -7.453125 C 13.828125 -6.878906 13.8125 -6.445312 13.78125 -6.15625 L 2.421875 -6.15625 C 2.453125 -4.976562 2.707031 -3.984375 3.1875 -3.171875 C 3.675781 -2.367188 4.316406 -1.765625 5.109375 -1.359375 C 5.898438 -0.953125 6.765625 -0.75 7.703125 -0.75 C 8.992188 -0.75 10.070312 -1.066406 10.9375 -1.703125 C 11.8125 -2.347656 12.363281 -3.21875 12.59375 -4.3125 L 13.734375 -4.3125 C 13.472656 -2.96875 12.804688 -1.878906 11.734375 -1.046875 C 10.671875 -0.222656 9.328125 0.1875 7.703125 0.1875 C 6.472656 0.1875 5.375 -0.0820312 4.40625 -0.625 C 3.4375 -1.175781 2.675781 -1.960938 2.125 -2.984375 C 1.582031 -4.015625 1.3125 -5.21875 1.3125 -6.59375 C 1.3125 -7.957031 1.582031 -9.148438 2.125 -10.171875 C 2.664062 -11.191406 3.421875 -11.972656 4.390625 -12.515625 C 5.359375 -13.054688 6.460938 -13.328125 7.703125 -13.328125 C 8.960938 -13.328125 10.054688 -13.054688 10.984375 -12.515625 C 11.910156 -11.972656 12.613281 -11.253906 13.09375 -10.359375 C 13.582031 -9.460938 13.828125 -8.492188 13.828125 -7.453125 Z M 12.734375 -7.046875 C 12.785156 -8.210938 12.582031 -9.195312 12.125 -10 C 11.664062 -10.8125 11.039062 -11.414062 10.25 -11.8125 C 9.457031 -12.207031 8.597656 -12.40625 7.671875 -12.40625 C 6.753906 -12.40625 5.90625 -12.207031 5.125 -11.8125 C 4.34375 -11.414062 3.703125 -10.8125 3.203125 -10 C 2.710938 -9.195312 2.453125 -8.210938 2.421875 -7.046875 Z M 12.734375 -7.046875 "/></g></g></g><g fill="#ffffff" fill-opacity="1"><g transform="translate(115.465823, 242.328987)"><g><path d="M 1.3125 -6.59375 C 1.3125 -7.957031 1.582031 -9.148438 2.125 -10.171875 C 2.664062 -11.191406 3.414062 -11.972656 4.375 -12.515625 C 5.332031 -13.054688 6.429688 -13.328125 7.671875 -13.328125 C 9.316406 -13.328125 10.671875 -12.910156 11.734375 -12.078125 C 12.796875 -11.253906 13.453125 -10.148438 13.703125 -8.765625 L 12.5625 -8.765625 C 12.351562 -9.898438 11.804688 -10.789062 10.921875 -11.4375 C 10.046875 -12.082031 8.960938 -12.40625 7.671875 -12.40625 C 6.703125 -12.40625 5.820312 -12.1875 5.03125 -11.75 C 4.238281 -11.320312 3.601562 -10.671875 3.125 -9.796875 C 2.65625 -8.921875 2.421875 -7.851562 2.421875 -6.59375 C 2.421875 -5.3125 2.65625 -4.234375 3.125 -3.359375 C 3.601562 -2.492188 4.238281 -1.84375 5.03125 -1.40625 C 5.820312 -0.96875 6.703125 -0.75 7.671875 -0.75 C 8.960938 -0.75 10.046875 -1.070312 10.921875 -1.71875 C 11.804688 -2.363281 12.351562 -3.253906 12.5625 -4.390625 L 13.703125 -4.390625 C 13.453125 -3.015625 12.789062 -1.90625 11.71875 -1.0625 C 10.65625 -0.226562 9.304688 0.1875 7.671875 0.1875 C 6.429688 0.1875 5.332031 -0.0820312 4.375 -0.625 C 3.414062 -1.175781 2.664062 -1.960938 2.125 -2.984375 C 1.582031 -4.015625 1.3125 -5.21875 1.3125 -6.59375 Z M 1.3125 -6.59375 "/></g></g></g><g fill="#ffffff" fill-opacity="1"><g transform="translate(129.587605, 242.328987)"><g><path d="M 13.109375 -13.15625 L 13.109375 0 L 12.015625 0 L 12.015625 -2.859375 C 11.640625 -1.859375 11.019531 -1.09375 10.15625 -0.5625 C 9.289062 -0.0390625 8.300781 0.21875 7.1875 0.21875 C 5.625 0.21875 4.34375 -0.257812 3.34375 -1.21875 C 2.351562 -2.1875 1.859375 -3.613281 1.859375 -5.5 L 1.859375 -13.15625 L 2.9375 -13.15625 L 2.9375 -5.578125 C 2.9375 -4.003906 3.328125 -2.800781 4.109375 -1.96875 C 4.898438 -1.144531 5.976562 -0.734375 7.34375 -0.734375 C 8.757812 -0.734375 9.890625 -1.179688 10.734375 -2.078125 C 11.585938 -2.984375 12.015625 -4.328125 12.015625 -6.109375 L 12.015625 -13.15625 Z M 13.109375 -13.15625 "/></g></g></g><g fill="#ffffff" fill-opacity="1"><g transform="translate(143.757831, 242.328987)"><g><path d="M 3.078125 -10.4375 C 3.398438 -11.40625 3.972656 -12.144531 4.796875 -12.65625 C 5.617188 -13.164062 6.664062 -13.421875 7.9375 -13.421875 L 7.9375 -12.28125 L 7.578125 -12.28125 C 6.285156 -12.28125 5.210938 -11.910156 4.359375 -11.171875 C 3.503906 -10.441406 3.078125 -9.242188 3.078125 -7.578125 L 3.078125 0 L 1.984375 0 L 1.984375 -13.15625 L 3.078125 -13.15625 Z M 3.078125 -10.4375 "/></g></g></g><g fill="#ffffff" fill-opacity="1"><g transform="translate(151.315159, 242.328987)"><g><path d="M 2.546875 -16.078125 C 2.285156 -16.078125 2.066406 -16.160156 1.890625 -16.328125 C 1.710938 -16.503906 1.625 -16.738281 1.625 -17.03125 C 1.625 -17.300781 1.710938 -17.523438 1.890625 -17.703125 C 2.066406 -17.878906 2.285156 -17.96875 2.546875 -17.96875 C 2.804688 -17.96875 3.023438 -17.878906 3.203125 -17.703125 C 3.378906 -17.523438 3.46875 -17.300781 3.46875 -17.03125 C 3.46875 -16.738281 3.378906 -16.503906 3.203125 -16.328125 C 3.023438 -16.160156 2.804688 -16.078125 2.546875 -16.078125 Z M 3.078125 -13.15625 L 3.078125 0 L 1.984375 0 L 1.984375 -13.15625 Z M 3.078125 -13.15625 "/></g></g></g><g fill="#ffffff" fill-opacity="1"><g transform="translate(155.481263, 242.328987)"><g><path d="M 3.609375 -12.203125 L 3.609375 -3.515625 C 3.609375 -2.546875 3.785156 -1.878906 4.140625 -1.515625 C 4.492188 -1.148438 5.125 -0.96875 6.03125 -0.96875 L 7.515625 -0.96875 L 7.515625 0 L 5.859375 0 C 4.710938 0 3.867188 -0.269531 3.328125 -0.8125 C 2.785156 -1.351562 2.515625 -2.253906 2.515625 -3.515625 L 2.515625 -12.203125 L 0.53125 -12.203125 L 0.53125 -13.15625 L 2.515625 -13.15625 L 2.515625 -16.5 L 3.609375 -16.5 L 3.609375 -13.15625 L 7.515625 -13.15625 L 7.515625 -12.203125 Z M 3.609375 -12.203125 "/></g></g></g><g fill="#ffffff" fill-opacity="1"><g transform="translate(162.965926, 242.328987)"><g><path d="M 12.25 -13.15625 L 4.609375 6.171875 L 3.484375 6.171875 L 5.9375 0 L 0.40625 -13.15625 L 1.59375 -13.15625 L 6.546875 -1.21875 L 11.140625 -13.15625 Z M 12.25 -13.15625 "/></g></g></g><g fill="#ffffff" fill-opacity="1"><g transform="translate(174.738066, 242.328987)"><g/></g></g><g fill="#ffffff" fill-opacity="1"><g transform="translate(180.648235, 242.328987)"><g><path d="M 6.375 0.1875 C 4.90625 0.1875 3.703125 -0.132812 2.765625 -0.78125 C 1.835938 -1.425781 1.320312 -2.34375 1.21875 -3.53125 L 2.328125 -3.53125 C 2.410156 -2.675781 2.800781 -2 3.5 -1.5 C 4.195312 -1 5.15625 -0.75 6.375 -0.75 C 7.375 -0.75 8.164062 -1.003906 8.75 -1.515625 C 9.34375 -2.023438 9.640625 -2.648438 9.640625 -3.390625 C 9.640625 -3.910156 9.476562 -4.332031 9.15625 -4.65625 C 8.84375 -4.988281 8.453125 -5.242188 7.984375 -5.421875 C 7.523438 -5.597656 6.890625 -5.789062 6.078125 -6 C 5.109375 -6.257812 4.320312 -6.515625 3.71875 -6.765625 C 3.125 -7.015625 2.617188 -7.390625 2.203125 -7.890625 C 1.785156 -8.390625 1.578125 -9.0625 1.578125 -9.90625 C 1.578125 -10.519531 1.757812 -11.085938 2.125 -11.609375 C 2.5 -12.140625 3.015625 -12.554688 3.671875 -12.859375 C 4.335938 -13.171875 5.09375 -13.328125 5.9375 -13.328125 C 7.3125 -13.328125 8.421875 -12.984375 9.265625 -12.296875 C 10.109375 -11.609375 10.5625 -10.660156 10.625 -9.453125 L 9.546875 -9.453125 C 9.492188 -10.316406 9.148438 -11.023438 8.515625 -11.578125 C 7.890625 -12.128906 7.019531 -12.40625 5.90625 -12.40625 C 4.96875 -12.40625 4.191406 -12.160156 3.578125 -11.671875 C 2.972656 -11.191406 2.671875 -10.601562 2.671875 -9.90625 C 2.671875 -9.289062 2.84375 -8.789062 3.1875 -8.40625 C 3.53125 -8.03125 3.957031 -7.738281 4.46875 -7.53125 C 4.976562 -7.332031 5.648438 -7.125 6.484375 -6.90625 C 7.410156 -6.664062 8.148438 -6.425781 8.703125 -6.1875 C 9.265625 -5.957031 9.738281 -5.617188 10.125 -5.171875 C 10.507812 -4.722656 10.703125 -4.128906 10.703125 -3.390625 C 10.703125 -2.710938 10.515625 -2.097656 10.140625 -1.546875 C 9.773438 -1.003906 9.257812 -0.578125 8.59375 -0.265625 C 7.9375 0.0351562 7.195312 0.1875 6.375 0.1875 Z M 6.375 0.1875 "/></g></g></g><g fill="#ffffff" fill-opacity="1"><g transform="translate(191.766356, 242.328987)"><g><path d="M 2.546875 -16.078125 C 2.285156 -16.078125 2.066406 -16.160156 1.890625 -16.328125 C 1.710938 -16.503906 1.625 -16.738281 1.625 -17.03125 C 1.625 -17.300781 1.710938 -17.523438 1.890625 -17.703125 C 2.066406 -17.878906 2.285156 -17.96875 2.546875 -17.96875 C 2.804688 -17.96875 3.023438 -17.878906 3.203125 -17.703125 C 3.378906 -17.523438 3.46875 -17.300781 3.46875 -17.03125 C 3.46875 -16.738281 3.378906 -16.503906 3.203125 -16.328125 C 3.023438 -16.160156 2.804688 -16.078125 2.546875 -16.078125 Z M 3.078125 -13.15625 L 3.078125 0 L 1.984375 0 L 1.984375 -13.15625 Z M 3.078125 -13.15625 "/></g></g></g><g fill="#ffffff" fill-opacity="1"><g transform="translate(195.93246, 242.328987)"><g><path d="M 17.53125 -13.421875 C 19.03125 -13.421875 20.253906 -12.9375 21.203125 -11.96875 C 22.160156 -11.007812 22.640625 -9.585938 22.640625 -7.703125 L 22.640625 0 L 21.578125 0 L 21.578125 -7.625 C 21.578125 -9.195312 21.203125 -10.394531 20.453125 -11.21875 C 19.703125 -12.050781 18.671875 -12.46875 17.359375 -12.46875 C 16.003906 -12.46875 14.914062 -12 14.09375 -11.0625 C 13.269531 -10.125 12.859375 -8.769531 12.859375 -7 L 12.859375 0 L 11.796875 0 L 11.796875 -7.625 C 11.796875 -9.195312 11.421875 -10.394531 10.671875 -11.21875 C 9.921875 -12.050781 8.890625 -12.46875 7.578125 -12.46875 C 6.222656 -12.46875 5.132812 -12 4.3125 -11.0625 C 3.488281 -10.125 3.078125 -8.769531 3.078125 -7 L 3.078125 0 L 1.984375 0 L 1.984375 -13.15625 L 3.078125 -13.15625 L 3.078125 -10.296875 C 3.453125 -11.328125 4.050781 -12.101562 4.875 -12.625 C 5.707031 -13.15625 6.664062 -13.421875 7.75 -13.421875 C 8.945312 -13.421875 9.976562 -13.109375 10.84375 -12.484375 C 11.707031 -11.859375 12.300781 -10.941406 12.625 -9.734375 C 12.925781 -10.941406 13.519531 -11.859375 14.40625 -12.484375 C 15.300781 -13.109375 16.34375 -13.421875 17.53125 -13.421875 Z M 17.53125 -13.421875 "/></g></g></g><g fill="#ffffff" fill-opacity="1"><g transform="translate(219.54965, 242.328987)"><g><path d="M 3.078125 -9.6875 C 3.453125 -10.75 4.125 -11.617188 5.09375 -12.296875 C 6.070312 -12.984375 7.253906 -13.328125 8.640625 -13.328125 C 9.867188 -13.328125 10.960938 -13.050781 11.921875 -12.5 C 12.890625 -11.945312 13.640625 -11.160156 14.171875 -10.140625 C 14.710938 -9.128906 14.984375 -7.945312 14.984375 -6.59375 C 14.984375 -5.226562 14.710938 -4.035156 14.171875 -3.015625 C 13.640625 -1.992188 12.890625 -1.203125 11.921875 -0.640625 C 10.960938 -0.0859375 9.867188 0.1875 8.640625 0.1875 C 7.273438 0.1875 6.101562 -0.148438 5.125 -0.828125 C 4.144531 -1.515625 3.460938 -2.382812 3.078125 -3.4375 L 3.078125 6.203125 L 1.984375 6.203125 L 1.984375 -13.15625 L 3.078125 -13.15625 Z M 13.875 -6.59375 C 13.875 -7.78125 13.644531 -8.8125 13.1875 -9.6875 C 12.738281 -10.5625 12.109375 -11.226562 11.296875 -11.6875 C 10.484375 -12.144531 9.546875 -12.375 8.484375 -12.375 C 7.460938 -12.375 6.539062 -12.132812 5.71875 -11.65625 C 4.894531 -11.1875 4.25 -10.507812 3.78125 -9.625 C 3.3125 -8.75 3.078125 -7.738281 3.078125 -6.59375 C 3.078125 -5.425781 3.3125 -4.398438 3.78125 -3.515625 C 4.25 -2.640625 4.894531 -1.960938 5.71875 -1.484375 C 6.539062 -1.015625 7.460938 -0.78125 8.484375 -0.78125 C 9.546875 -0.78125 10.484375 -1.015625 11.296875 -1.484375 C 12.109375 -1.953125 12.738281 -2.617188 13.1875 -3.484375 C 13.644531 -4.359375 13.875 -5.394531 13.875 -6.59375 Z M 13.875 -6.59375 "/></g></g></g><g fill="#ffffff" fill-opacity="1"><g transform="translate(234.931026, 242.328987)"><g><path d="M 3.078125 -17.921875 L 3.078125 0 L 1.984375 0 L 1.984375 -17.921875 Z M 3.078125 -17.921875 "/></g></g></g><g fill="#ffffff" fill-opacity="1"><g transform="translate(239.09713, 242.328987)"><g><path d="M 2.546875 -16.078125 C 2.285156 -16.078125 2.066406 -16.160156 1.890625 -16.328125 C 1.710938 -16.503906 1.625 -16.738281 1.625 -17.03125 C 1.625 -17.300781 1.710938 -17.523438 1.890625 -17.703125 C 2.066406 -17.878906 2.285156 -17.96875 2.546875 -17.96875 C 2.804688 -17.96875 3.023438 -17.878906 3.203125 -17.703125 C 3.378906 -17.523438 3.46875 -17.300781 3.46875 -17.03125 C 3.46875 -16.738281 3.378906 -16.503906 3.203125 -16.328125 C 3.023438 -16.160156 2.804688 -16.078125 2.546875 -16.078125 Z M 3.078125 -13.15625 L 3.078125 0 L 1.984375 0 L 1.984375 -13.15625 Z M 3.078125 -13.15625 "/></g></g></g><g fill="#ffffff" fill-opacity="1"><g transform="translate(243.263235, 242.328987)"><g><path d="M 7 -12.1875 L 3.578125 -12.1875 L 3.578125 0 L 2.5 0 L 2.5 -12.1875 L 0.515625 -12.1875 L 0.515625 -13.15625 L 2.5 -13.15625 L 2.5 -14.078125 C 2.5 -15.441406 2.84375 -16.457031 3.53125 -17.125 C 4.226562 -17.800781 5.367188 -18.140625 6.953125 -18.140625 L 6.953125 -17.171875 C 5.691406 -17.171875 4.8125 -16.925781 4.3125 -16.4375 C 3.820312 -15.957031 3.578125 -15.171875 3.578125 -14.078125 L 3.578125 -13.15625 L 7 -13.15625 Z M 7 -12.1875 "/></g></g></g><g fill="#ffffff" fill-opacity="1"><g transform="translate(250.142331, 242.328987)"><g><path d="M 2.546875 -16.078125 C 2.285156 -16.078125 2.066406 -16.160156 1.890625 -16.328125 C 1.710938 -16.503906 1.625 -16.738281 1.625 -17.03125 C 1.625 -17.300781 1.710938 -17.523438 1.890625 -17.703125 C 2.066406 -17.878906 2.285156 -17.96875 2.546875 -17.96875 C 2.804688 -17.96875 3.023438 -17.878906 3.203125 -17.703125 C 3.378906 -17.523438 3.46875 -17.300781 3.46875 -17.03125 C 3.46875 -16.738281 3.378906 -16.503906 3.203125 -16.328125 C 3.023438 -16.160156 2.804688 -16.078125 2.546875 -16.078125 Z M 3.078125 -13.15625 L 3.078125 0 L 1.984375 0 L 1.984375 -13.15625 Z M 3.078125 -13.15625 "/></g></g></g><g fill="#ffffff" fill-opacity="1"><g transform="translate(254.308436, 242.328987)"><g><path d="M 13.828125 -7.453125 C 13.828125 -6.878906 13.8125 -6.445312 13.78125 -6.15625 L 2.421875 -6.15625 C 2.453125 -4.976562 2.707031 -3.984375 3.1875 -3.171875 C 3.675781 -2.367188 4.316406 -1.765625 5.109375 -1.359375 C 5.898438 -0.953125 6.765625 -0.75 7.703125 -0.75 C 8.992188 -0.75 10.070312 -1.066406 10.9375 -1.703125 C 11.8125 -2.347656 12.363281 -3.21875 12.59375 -4.3125 L 13.734375 -4.3125 C 13.472656 -2.96875 12.804688 -1.878906 11.734375 -1.046875 C 10.671875 -0.222656 9.328125 0.1875 7.703125 0.1875 C 6.472656 0.1875 5.375 -0.0820312 4.40625 -0.625 C 3.4375 -1.175781 2.675781 -1.960938 2.125 -2.984375 C 1.582031 -4.015625 1.3125 -5.21875 1.3125 -6.59375 C 1.3125 -7.957031 1.582031 -9.148438 2.125 -10.171875 C 2.664062 -11.191406 3.421875 -11.972656 4.390625 -12.515625 C 5.359375 -13.054688 6.460938 -13.328125 7.703125 -13.328125 C 8.960938 -13.328125 10.054688 -13.054688 10.984375 -12.515625 C 11.910156 -11.972656 12.613281 -11.253906 13.09375 -10.359375 C 13.582031 -9.460938 13.828125 -8.492188 13.828125 -7.453125 Z M 12.734375 -7.046875 C 12.785156 -8.210938 12.582031 -9.195312 12.125 -10 C 11.664062 -10.8125 11.039062 -11.414062 10.25 -11.8125 C 9.457031 -12.207031 8.597656 -12.40625 7.671875 -12.40625 C 6.753906 -12.40625 5.90625 -12.207031 5.125 -11.8125 C 4.34375 -11.414062 3.703125 -10.8125 3.203125 -10 C 2.710938 -9.195312 2.453125 -8.210938 2.421875 -7.046875 Z M 12.734375 -7.046875 "/></g></g></g><g fill="#ffffff" fill-opacity="1"><g transform="translate(268.527102, 242.328987)"><g><path d="M 1.3125 -6.59375 C 1.3125 -7.945312 1.582031 -9.128906 2.125 -10.140625 C 2.664062 -11.160156 3.414062 -11.945312 4.375 -12.5 C 5.332031 -13.050781 6.425781 -13.328125 7.65625 -13.328125 C 8.988281 -13.328125 10.148438 -12.988281 11.140625 -12.3125 C 12.128906 -11.644531 12.820312 -10.78125 13.21875 -9.71875 L 13.21875 -17.921875 L 14.3125 -17.921875 L 14.3125 0 L 13.21875 0 L 13.21875 -3.484375 C 12.832031 -2.398438 12.15625 -1.515625 11.1875 -0.828125 C 10.21875 -0.148438 9.039062 0.1875 7.65625 0.1875 C 6.425781 0.1875 5.332031 -0.0859375 4.375 -0.640625 C 3.414062 -1.203125 2.664062 -1.992188 2.125 -3.015625 C 1.582031 -4.035156 1.3125 -5.226562 1.3125 -6.59375 Z M 13.21875 -6.59375 C 13.21875 -7.738281 12.976562 -8.75 12.5 -9.625 C 12.03125 -10.507812 11.382812 -11.1875 10.5625 -11.65625 C 9.738281 -12.132812 8.816406 -12.375 7.796875 -12.375 C 6.734375 -12.375 5.796875 -12.144531 4.984375 -11.6875 C 4.179688 -11.226562 3.550781 -10.5625 3.09375 -9.6875 C 2.644531 -8.8125 2.421875 -7.78125 2.421875 -6.59375 C 2.421875 -5.394531 2.644531 -4.359375 3.09375 -3.484375 C 3.550781 -2.617188 4.1875 -1.953125 5 -1.484375 C 5.8125 -1.015625 6.742188 -0.78125 7.796875 -0.78125 C 8.816406 -0.78125 9.738281 -1.015625 10.5625 -1.484375 C 11.394531 -1.960938 12.046875 -2.640625 12.515625 -3.515625 C 12.984375 -4.398438 13.21875 -5.425781 13.21875 -6.59375 Z M 13.21875 -6.59375 "/></g></g></g></svg>